<svg width="93" height="93" viewBox="0 0 93 93" fill="none" xmlns="http://www.w3.org/2000/svg">
    <rect x="0.332143" y="0.332143" width="92.3357" height="92.3357" rx="46.1679" stroke="black"
        stroke-width="0.664286" />
    <path
        d="M20.5444 75.8293V75.0418H23.9305C25.2429 75.0418 26.2141 74.8843 26.8441 74.5694C27.474 74.2544 27.8677 73.6244 28.0252 72.6795C28.2352 71.682 28.3402 70.1596 28.3402 68.1122V27.3219C28.3402 25.2746 28.2352 23.7784 28.0252 22.8334C27.8677 21.836 27.474 21.1798 26.8441 20.8648C26.2141 20.5498 25.2429 20.3923 23.9305 20.3923H20.5444V19.6049H38.4984V20.3923H34.9549C33.6424 20.3923 32.6712 20.5498 32.0413 20.8648C31.4113 21.1798 30.9913 21.836 30.7813 22.8334C30.6238 23.7784 30.5451 25.2746 30.5451 27.3219V45.9847H62.5946V27.3219C62.5946 25.2746 62.4896 23.7784 62.2796 22.8334C62.1221 21.836 61.7284 21.1798 61.0984 20.8648C60.4685 20.5498 59.4973 20.3923 58.1848 20.3923H54.6413V19.6049H72.5953V20.3923H69.2092C67.8968 20.3923 66.9256 20.5498 66.2956 20.8648C65.6657 21.1798 65.2457 21.836 65.0357 22.8334C64.8782 23.7784 64.7995 25.2746 64.7995 27.3219V68.1122C64.7995 70.1596 64.8782 71.682 65.0357 72.6795C65.2457 73.6244 65.6657 74.2544 66.2956 74.5694C66.9256 74.8843 67.8968 75.0418 69.2092 75.0418H72.5953V75.8293H54.6413V75.0418H58.1848C59.4973 75.0418 60.4685 74.8843 61.0984 74.5694C61.7284 74.2544 62.1221 73.6244 62.2796 72.6795C62.4896 71.682 62.5946 70.1596 62.5946 68.1122V46.7721H30.5451V68.1122C30.5451 70.1596 30.6238 71.682 30.7813 72.6795C30.9913 73.6244 31.4113 74.2544 32.0413 74.5694C32.6712 74.8843 33.6424 75.0418 34.9549 75.0418H38.4984V75.8293H20.5444Z"
        fill="black" />
    <path
        d="M23.8659 75.8293V75.0418H27.2519C28.5644 75.0418 29.5356 74.8843 30.1655 74.5694C30.7955 74.2544 31.1892 73.6244 31.3467 72.6795C31.5567 71.682 31.6617 70.1596 31.6617 68.1122V27.3219C31.6617 25.2746 31.5567 23.7784 31.3467 22.8334C31.1892 21.836 30.7955 21.1798 30.1655 20.8648C29.5356 20.5498 28.5644 20.3923 27.2519 20.3923H23.8659V19.6049H41.6624V20.3923H38.2763C36.9639 20.3923 35.9927 20.5498 35.3627 20.8648C34.7328 21.1798 34.3128 21.836 34.1028 22.8334C33.9453 23.7784 33.8666 25.2746 33.8666 27.3219V55.3554L56.7028 28.3456C58.0152 26.7707 59.0127 25.5633 59.6952 24.7233C60.3776 23.8834 60.8501 23.2272 61.1126 22.7547C61.3751 22.2822 61.5063 21.8622 61.5063 21.4948C61.5063 21.1273 61.3226 20.8648 60.9551 20.7073C60.6401 20.5498 60.1151 20.4711 59.3802 20.4711C58.6452 20.4186 57.6478 20.3923 56.3878 20.3923V19.6049H68.7509V20.3923C67.491 20.3923 66.4148 20.5761 65.5223 20.9435C64.6824 21.2585 63.7374 21.9147 62.6875 22.9122C61.69 23.9096 60.2989 25.4583 58.514 27.5582L44.576 44.0948L64.1837 67.4822C65.7061 69.2671 66.9135 70.6846 67.806 71.7345C68.7509 72.732 69.5121 73.4669 70.0896 73.9394C70.6671 74.4119 71.2183 74.7268 71.7432 74.8843C72.2682 74.9893 72.8719 75.0418 73.5544 75.0418H73.9481V75.8293H72.0582C71.2183 75.8293 70.4571 75.7243 69.7746 75.5143C69.0921 75.3043 68.3834 74.9106 67.6485 74.3331C66.9135 73.7556 66.0473 72.9419 65.0499 71.892C64.0524 70.7896 62.845 69.3721 61.4276 67.6397L43.0798 45.7484L33.8666 56.7728V68.1122C33.8666 70.1596 33.9453 71.682 34.1028 72.6795C34.3128 73.6244 34.7328 74.2544 35.3627 74.5694C35.9927 74.8843 36.9639 75.0418 38.2763 75.0418H41.8199V75.8293H23.8659Z"
        fill="black" />
</svg>