<svg width="191" height="191" viewBox="0 0 191 191" fill="none" xmlns="http://www.w3.org/2000/svg">
<path d="M171.45 101.34L182.641 98.8402L182.648 98.7686C182.407 98.7703 182.083 98.7583 181.676 98.7325C181.268 98.7188 180.831 98.6962 180.365 98.665C179.897 98.6456 179.436 98.6149 178.983 98.5728L171.769 97.9033L171.937 96.0953L184.718 97.2816L184.459 100.074L173.889 102.487L173.884 102.541L183.824 106.912L183.565 109.705L170.784 108.518L170.96 106.621L178.281 107.3C178.699 107.339 179.128 107.385 179.568 107.438C180.021 107.492 180.443 107.549 180.834 107.61C181.226 107.67 181.547 107.718 181.796 107.753L181.803 107.681L171.289 103.077L171.45 101.34Z" fill="#3e170a"/>
<path d="M168.511 117.756L170.202 111.119L182.641 114.288L180.95 120.925L179.347 120.517L180.545 115.813L176.991 114.908L175.864 119.333L174.279 118.929L175.406 114.504L171.33 113.465L170.131 118.169L168.511 117.756Z" fill="#3e170a"/>
<path d="M163.975 128.704L164.919 126.449L176.772 124.998L176.8 124.931C176.574 124.85 176.332 124.761 176.073 124.666C175.809 124.582 175.531 124.485 175.239 124.376C174.958 124.271 174.666 124.162 174.363 124.048C174.071 123.939 173.773 123.827 173.47 123.713L167.168 121.075L167.869 119.401L179.71 124.357L178.773 126.595L166.977 128.051L166.95 128.117C167.12 128.175 167.329 128.25 167.577 128.341C167.836 128.436 168.111 128.538 168.404 128.648C168.696 128.757 168.993 128.868 169.296 128.982C169.599 129.096 169.884 129.209 170.149 129.32L176.517 131.985L175.816 133.66L163.975 128.704Z" fill="#3e170a"/>
<path d="M161.878 141.972C161.127 141.502 160.541 140.923 160.123 140.237C159.708 139.567 159.513 138.816 159.539 137.984C159.575 137.158 159.88 136.288 160.452 135.374C161.272 134.064 162.264 133.292 163.428 133.059C164.596 132.843 165.784 133.113 166.993 133.869L174.003 138.257L172.944 139.949L166.01 135.609C165.116 135.049 164.317 134.824 163.612 134.934C162.917 135.051 162.318 135.51 161.816 136.313C161.466 136.871 161.298 137.388 161.311 137.863C161.319 138.349 161.47 138.797 161.764 139.207C162.069 139.624 162.5 140.007 163.059 140.357L169.977 144.688L168.918 146.379L161.878 141.972Z" fill="#3e170a"/>
<path d="M158.061 149.735C158.487 150.122 158.768 150.499 158.904 150.866C159.041 151.25 159.062 151.609 158.968 151.945C158.865 152.289 158.681 152.607 158.415 152.9C158.157 153.184 157.861 153.393 157.528 153.527C157.195 153.662 156.835 153.675 156.448 153.566C156.062 153.474 155.656 153.234 155.231 152.847C154.814 152.468 154.537 152.086 154.4 151.703C154.264 151.336 154.243 150.976 154.336 150.624C154.439 150.28 154.619 149.966 154.877 149.682C155.143 149.389 155.443 149.176 155.776 149.041C156.11 148.924 156.47 148.911 156.856 149.003C157.243 149.112 157.645 149.356 158.061 149.735Z" fill="#3e170a"/>
<path d="M141.257 156.009L150.551 162.727L150.609 162.684C150.448 162.505 150.242 162.255 149.991 161.933C149.731 161.619 149.458 161.276 149.172 160.906C148.876 160.544 148.594 160.179 148.325 159.811L144.041 153.968L145.506 152.895L153.094 163.247L150.833 164.905L142.017 158.595L141.973 158.627L145.294 168.965L143.032 170.623L135.443 160.271L136.98 159.144L141.327 165.074C141.575 165.413 141.825 165.764 142.078 166.129C142.337 166.503 142.574 166.857 142.789 167.19C143.003 167.523 143.18 167.795 143.319 168.005L143.377 167.963L139.851 157.04L141.257 156.009Z" fill="#3e170a"/>
<path d="M127.787 164.297L133.868 161.145L139.775 172.541L133.694 175.693L132.933 174.225L137.242 171.991L135.554 168.735L131.5 170.837L130.747 169.384L134.801 167.283L132.865 163.548L128.556 165.782L127.787 164.297Z" fill="#3e170a"/>
<path d="M115.785 169.14L118.095 168.341L127.073 176.214L127.141 176.191C127.052 175.968 126.956 175.728 126.855 175.472C126.742 175.219 126.629 174.947 126.516 174.657C126.407 174.378 126.294 174.087 126.177 173.785C126.064 173.494 125.949 173.198 125.832 172.896L123.601 166.439L125.317 165.846L129.509 177.979L127.215 178.771L118.272 170.943L118.204 170.967C118.274 171.133 118.357 171.338 118.455 171.584C118.556 171.84 118.663 172.114 118.777 172.405C118.89 172.695 119.005 172.991 119.122 173.293C119.239 173.595 119.344 173.882 119.438 174.154L121.692 180.679L119.976 181.272L115.785 169.14Z" fill="#3e170a"/>
<path d="M104.681 175.892C104.531 175.017 104.573 174.196 104.807 173.426C105.03 172.671 105.461 172.025 106.099 171.491C106.739 170.968 107.591 170.616 108.654 170.434C110.178 170.173 111.414 170.399 112.363 171.113C113.302 171.84 113.892 172.906 114.132 174.312L115.526 182.464L113.559 182.8L112.18 174.737C112.002 173.697 111.638 172.951 111.086 172.498C110.537 172.057 109.795 171.917 108.862 172.076C108.212 172.187 107.714 172.406 107.369 172.733C107.012 173.061 106.778 173.472 106.668 173.965C106.56 174.47 106.561 175.047 106.672 175.697L108.048 183.742L106.081 184.078L104.681 175.892Z" fill="#3e170a"/>
<path d="M97.0956 177.84C97.0867 178.415 96.9897 178.875 96.8046 179.22C96.6073 179.577 96.3516 179.831 96.0376 179.981C95.7117 180.132 95.351 180.205 94.9555 180.199C94.572 180.193 94.2197 180.109 93.8985 179.948C93.5774 179.788 93.3297 179.526 93.1555 179.164C92.9691 178.813 92.8804 178.351 92.8893 177.775C92.898 177.212 93.001 176.752 93.1983 176.396C93.3834 176.051 93.639 175.797 93.9652 175.634C94.2911 175.484 94.6459 175.411 95.0293 175.417C95.4248 175.423 95.7831 175.507 96.1043 175.667C96.4132 175.84 96.6609 176.101 96.8473 176.452C97.0215 176.814 97.1043 177.277 97.0956 177.84Z" fill="#3e170a"/>
<path d="M80.307 170.283L81.4626 181.692L81.5329 181.707C81.5598 181.468 81.6101 181.148 81.6839 180.747C81.7459 180.343 81.8202 179.912 81.9065 179.452C81.9811 178.99 82.0662 178.537 82.1618 178.091L83.6819 171.008L85.4572 171.389L82.764 183.939L80.0219 183.351L78.8787 172.569L78.826 172.558L73.3073 181.91L70.5652 181.321L73.2584 168.771L75.1216 169.171L73.5789 176.36C73.4909 176.77 73.3945 177.191 73.2897 177.622C73.1824 178.064 73.0756 178.477 72.9692 178.858C72.8628 179.24 72.7773 179.553 72.7128 179.796L72.7831 179.811L78.602 169.918L80.307 170.283Z" fill="#3e170a"/>
<path d="M65.031 165.537L71.4165 168.015L66.7721 179.982L60.3867 177.503L60.9851 175.961L65.5102 177.718L66.8372 174.299L62.5802 172.647L63.1722 171.121L67.4291 172.774L68.9512 168.852L64.4261 167.096L65.031 165.537Z" fill="#3e170a"/>
<path d="M54.2233 159.02L56.351 160.225L56.3874 172.166L56.4499 172.201C56.5576 171.987 56.6741 171.757 56.7995 171.511C56.9145 171.259 57.0435 170.995 57.1866 170.718C57.3238 170.451 57.4669 170.174 57.6159 169.886C57.759 169.609 57.905 169.327 58.054 169.04L61.4197 163.095L62.9998 163.989L56.6758 175.159L54.5638 173.964L54.5165 162.079L54.4539 162.043C54.3757 162.205 54.2769 162.404 54.1574 162.64C54.0321 162.885 53.8978 163.147 53.7547 163.424C53.6116 163.701 53.4656 163.983 53.3166 164.271C53.1676 164.558 53.0222 164.827 52.8805 165.078L49.4793 171.085L47.8993 170.19L54.2233 159.02Z" fill="#3e170a"/>
<path d="M41.5144 155.102C42.072 154.412 42.7167 153.901 43.4485 153.568C44.1633 153.236 44.9322 153.134 45.7552 153.26C46.5706 153.395 47.3977 153.802 48.2364 154.48C49.4387 155.452 50.0854 156.53 50.1766 157.713C50.2509 158.898 49.8396 160.046 48.9429 161.155L43.7433 167.585L42.1915 166.33L47.3347 159.97C47.9978 159.15 48.3172 158.383 48.2928 157.67C48.2609 156.966 47.8768 156.316 47.1406 155.721C46.628 155.306 46.135 155.077 45.6617 155.034C45.1791 154.982 44.7162 155.078 44.2732 155.321C43.8227 155.573 43.3902 155.956 42.9757 156.468L37.8439 162.815L36.2922 161.56L41.5144 155.102Z" fill="#3e170a"/>
<path d="M34.6936 151.331C34.2583 151.707 33.8504 151.941 33.4699 152.032C33.0725 152.122 32.713 152.1 32.3913 151.966C32.0618 151.823 31.7678 151.602 31.5092 151.303C31.2584 151.013 31.0861 150.694 30.9924 150.348C30.8987 150.001 30.9291 149.642 31.0836 149.271C31.2212 148.899 31.5076 148.524 31.9428 148.148C32.369 147.78 32.7808 147.551 33.1783 147.461C33.5588 147.369 33.9183 147.391 34.2569 147.526C34.5864 147.669 34.8765 147.886 35.1273 148.176C35.3859 148.475 35.562 148.798 35.6558 149.145C35.7326 149.491 35.7022 149.849 35.5646 150.222C35.4101 150.593 35.1198 150.963 34.6936 151.331Z" fill="#3e170a"/>
<path d="M30.1683 133.988L22.4082 142.431L22.4436 142.493C22.6404 142.354 22.9131 142.179 23.2618 141.968C23.6046 141.746 23.9764 141.515 24.3773 141.275C24.7722 141.023 25.1679 140.786 25.5642 140.561L31.8689 136.992L32.7635 138.572L21.5934 144.896L20.2116 142.455L27.5107 134.439L27.4842 134.392L16.8282 136.479L15.4465 134.039L26.6166 127.715L27.5554 129.373L21.1569 132.996C20.7918 133.202 20.4134 133.41 20.0216 133.618C19.6194 133.832 19.2403 134.026 18.8843 134.2C18.5283 134.374 18.2378 134.517 18.0129 134.631L18.0483 134.694L29.3092 132.471L30.1683 133.988Z" fill="#3e170a"/>
<path d="M22.8877 118.797L25.2699 125.219L13.2352 129.684L10.853 123.262L12.4037 122.687L14.0918 127.237L17.5304 125.962L15.9422 121.681L17.4761 121.112L19.0642 125.393L23.0084 123.93L21.3202 119.379L22.8877 118.797Z" fill="#3e170a"/>
<path d="M20.1329 106.917L20.6459 109.308L11.7446 117.267L11.7597 117.337C11.9915 117.275 12.241 117.21 12.508 117.14C12.7725 117.059 13.0558 116.98 13.358 116.903C13.6484 116.828 13.9506 116.751 14.2645 116.671C14.5666 116.594 14.8746 116.516 15.1885 116.436L21.868 115.003L22.249 116.778L9.69858 119.471L9.18937 117.098L18.0417 109.168L18.0266 109.098C17.8533 109.147 17.6391 109.205 17.3838 109.272C17.1168 109.342 16.8322 109.415 16.53 109.492C16.2279 109.569 15.9198 109.648 15.606 109.727C15.2921 109.807 14.9945 109.877 14.7133 109.937L7.96349 111.386L7.58252 109.61L20.1329 106.917Z" fill="#3e170a"/>
<path d="M14.8979 95.5439C15.7837 95.4994 16.5947 95.6387 17.3309 95.9617C18.0546 96.2734 18.6439 96.7778 19.0989 97.475C19.542 98.1728 19.7906 99.0603 19.8446 100.138C19.9222 101.682 19.5504 102.882 18.7295 103.74C17.8959 104.586 16.7669 105.044 15.3425 105.116L7.08314 105.53L6.98307 103.537L15.1526 103.127C16.206 103.074 16.9903 102.801 17.5055 102.307C18.0088 101.814 18.2366 101.094 18.1892 100.149C18.1561 99.4904 17.998 98.9703 17.7148 98.5885C17.4311 98.1947 17.0509 97.9138 16.5745 97.7457C16.0861 97.5782 15.5127 97.511 14.8543 97.5441L6.70272 97.9534L6.60265 95.9603L14.8979 95.5439Z" fill="#3e170a"/>
<path d="M13.4727 86.8792C12.9026 86.8019 12.4574 86.6508 12.1372 86.4259C11.8067 86.1876 11.5852 85.9035 11.4727 85.5738C11.3618 85.2322 11.3329 84.8654 11.3861 84.4735C11.4376 84.0935 11.5624 83.7536 11.7603 83.4539C11.9582 83.1541 12.2473 82.9394 12.6278 82.8096C12.998 82.6663 13.4681 82.6333 14.0382 82.7106C14.5964 82.7864 15.0407 82.9434 15.3712 83.1817C15.6915 83.4066 15.913 83.6907 16.0357 84.0339C16.1466 84.3755 16.1763 84.7363 16.1247 85.1164C16.0716 85.5083 15.946 85.8541 15.7482 86.1538C15.54 86.44 15.2508 86.6548 14.8806 86.7981C14.5002 86.9279 14.0308 86.955 13.4727 86.8792Z" fill="#3e170a"/>
<path d="M23.1893 72.0414L11.7244 71.8083L11.7009 71.8763C11.9353 71.9319 12.247 72.0206 12.6361 72.1423C13.0291 72.2528 13.4484 72.3786 13.8941 72.5199C14.3437 72.6499 14.7838 72.7893 15.2142 72.938L22.0621 75.3039L21.4691 77.0201L9.33674 72.8284L10.2526 70.1776L21.0928 70.347L21.1104 70.2961L12.4952 63.6866L13.411 61.0359L25.5434 65.2276L24.9211 67.0287L17.9713 64.6276C17.5749 64.4906 17.169 64.3441 16.7538 64.1879C16.3272 64.0279 15.9309 63.8719 15.5649 63.7201C15.1989 63.5683 14.899 63.4456 14.665 63.3521L14.6415 63.4201L23.7587 70.3932L23.1893 72.0414Z" fill="#3e170a"/>
<path d="M30.7193 56.8746L27.4775 62.9084L16.1701 56.8333L19.4119 50.7995L20.8688 51.5823L18.5715 55.8582L21.8022 57.594L23.9634 53.5714L25.4045 54.3457L23.2434 58.3683L26.9492 60.3593L29.2465 56.0833L30.7193 56.8746Z" fill="#3e170a"/>
<path d="M37.2043 47.212L35.7517 49.1787L23.8938 47.7731L23.8511 47.831C24.051 47.9637 24.2654 48.1072 24.4942 48.2613C24.7302 48.4058 24.9771 48.5658 25.2348 48.7413C25.483 48.9097 25.7407 49.0852 26.0082 49.2678C26.2659 49.4433 26.5285 49.6224 26.7959 49.805L32.291 53.8639L31.2121 55.3244L20.8873 47.698L22.3293 45.7458L34.1331 47.1338L34.1758 47.076C34.0241 46.9788 33.8386 46.8567 33.6194 46.7097C33.3906 46.5555 33.1473 46.3907 32.8895 46.2152C32.6317 46.0397 32.3691 45.8606 32.1017 45.678C31.8343 45.4954 31.5849 45.3186 31.3535 45.1477L25.8007 41.0461L26.8795 39.5856L37.2043 47.212Z" fill="#3e170a"/>
<path d="M42.0093 34.9166C42.6296 35.5505 43.0627 36.2502 43.3086 37.0157C43.5547 37.7642 43.5674 38.5398 43.3468 39.3426C43.1178 40.1367 42.6178 40.911 41.8468 41.6654C40.7417 42.7467 39.5961 43.2639 38.4101 43.217C37.2242 43.1533 36.1326 42.6117 35.1351 41.5922L29.3516 35.6812L30.778 34.2857L36.4986 40.1324C37.2362 40.8863 37.9607 41.2925 38.672 41.3511C39.3749 41.4011 40.0647 41.0951 40.7415 40.4329C41.2126 39.9719 41.4974 39.5089 41.5957 39.0438C41.7025 38.5703 41.661 38.0995 41.4712 37.6313C41.273 37.1545 40.9434 36.6805 40.4824 36.2094L34.7743 30.3755L36.2007 28.9799L42.0093 34.9166Z" fill="#3e170a"/>
<path d="M47.8539 28.0009C47.5327 27.5236 47.3497 27.0906 47.3048 26.7018C47.2632 26.2965 47.3281 25.9422 47.4996 25.639C47.6811 25.329 47.9359 25.0637 48.2641 24.8429C48.5823 24.6287 48.9191 24.496 49.2746 24.4446C49.63 24.3932 49.9827 24.4665 50.3326 24.6644C50.6857 24.8457 51.0229 25.175 51.344 25.6523C51.6585 26.1196 51.8366 26.556 51.8782 26.9613C51.9231 27.35 51.8582 27.7043 51.6834 28.0242C51.5019 28.3341 51.252 28.5962 50.9339 28.8103C50.6057 29.0311 50.2639 29.1672 49.9085 29.2186C49.5563 29.2534 49.2036 29.1801 48.8505 28.9988C48.5006 28.8008 48.1684 28.4682 47.8539 28.0009Z" fill="#3e170a"/>
<path d="M65.5821 25.2336L58.1509 16.5L58.0845 16.5276C58.1983 16.7398 58.3388 17.0319 58.5058 17.4038C58.6839 17.7711 58.8679 18.1684 59.0578 18.5957C59.2588 19.0183 59.4464 19.4401 59.6207 19.8608L62.3931 26.5544L60.7155 27.2493L55.8037 15.3901L58.3948 14.3169L65.4592 22.5408L65.509 22.5202L64.7396 11.689L67.3306 10.6159L72.2425 22.475L70.4819 23.2042L67.6682 16.4109C67.5077 16.0234 67.3482 15.6225 67.1895 15.2082C67.0263 14.7828 66.8801 14.3829 66.7509 14.0083C66.6217 13.6337 66.5145 13.3279 66.4293 13.0907L66.3628 13.1182L67.1932 24.5663L65.5821 25.2336Z" fill="#3e170a"/>
<path d="M80.6566 20.7741L74.0003 22.3892L70.9734 9.91513L77.6298 8.29998L78.0198 9.90729L73.3027 11.0519L74.1675 14.6159L78.6051 13.5391L78.9908 15.129L74.5533 16.2058L75.5453 20.2939L80.2624 19.1493L80.6566 20.7741Z" fill="#3e170a"/>
<path d="M93.3556 19.1359L90.9211 19.3619L84.0731 9.57974L84.0015 9.58639C84.0356 9.82396 84.0713 10.0794 84.1088 10.3528C84.1581 10.6251 84.2031 10.9158 84.2439 11.225C84.2835 11.5222 84.3242 11.8314 84.3661 12.1525C84.4068 12.4616 84.4481 12.7768 84.4899 13.0979L85.1213 19.9002L83.3133 20.068L82.127 7.28684L84.5436 7.06254L91.3688 16.7926L91.4404 16.786C91.4118 16.6081 91.3794 16.3884 91.3431 16.127C91.3057 15.8536 91.2666 15.5623 91.2259 15.2532C91.1851 14.944 91.1439 14.6289 91.102 14.3077C91.0602 13.9866 91.026 13.6829 90.9994 13.3965L90.3614 6.52257L92.1694 6.35476L93.3556 19.1359Z" fill="#3e170a"/>
<path d="M105.949 15.2391C105.884 16.1236 105.646 16.9113 105.235 17.6021C104.836 18.2819 104.263 18.8046 103.515 19.1703C102.768 19.5241 101.857 19.6615 100.781 19.5825C99.2392 19.4693 98.0935 18.9525 97.3438 18.0322C96.6071 17.1008 96.2909 15.9239 96.3953 14.5015L97.0009 6.25399L98.9911 6.40012L98.3921 14.558C98.3149 15.6099 98.4896 16.4219 98.9162 16.994C99.3438 17.5541 100.03 17.8689 100.974 17.9382C101.631 17.9865 102.167 17.8936 102.581 17.6596C103.006 17.4265 103.332 17.0839 103.558 16.6318C103.784 16.1677 103.921 15.6069 103.969 14.9495L104.567 6.80955L106.557 6.95567L105.949 15.2391Z" fill="#3e170a"/>
<path d="M113.945 15.3162C114.089 14.7592 114.292 14.335 114.553 14.0436C114.829 13.7436 115.137 13.5572 115.478 13.4844C115.83 13.4146 116.198 13.4293 116.581 13.5284C116.952 13.6245 117.275 13.7885 117.549 14.0204C117.823 14.2523 118.002 14.5649 118.086 14.958C118.185 15.3425 118.162 15.8132 118.018 16.3702C117.877 16.9155 117.668 17.3382 117.393 17.6382C117.131 17.9297 116.823 18.1161 116.468 18.1974C116.116 18.2672 115.754 18.254 115.382 18.1579C115 18.0588 114.671 17.8933 114.397 17.6614C114.137 17.4209 113.958 17.1084 113.859 16.7239C113.776 16.3307 113.804 15.8615 113.945 15.3162Z" fill="#3e170a"/>
<path d="M127.767 27.067L129.409 15.7178L129.344 15.6862C129.26 15.9119 129.134 16.2104 128.965 16.5815C128.807 16.9579 128.631 17.3586 128.436 17.7836C128.251 18.2138 128.059 18.6333 127.858 19.0422L124.668 25.547L123.038 24.7475L128.69 13.2229L131.208 14.4578L129.706 25.1948L129.755 25.2186L137.374 17.4819L139.892 18.7168L134.24 30.2414L132.529 29.4023L135.766 22.8007C135.951 22.4241 136.146 22.0393 136.353 21.6464C136.564 21.2428 136.767 20.8687 136.963 20.5242C137.159 20.1796 137.317 19.897 137.439 19.6763L137.374 19.6447L129.333 27.8349L127.767 27.067Z" fill="#3e170a"/>
<path d="M141.999 35.3907L136.387 31.4634L143.747 20.9468L149.359 24.8742L148.411 26.2292L144.434 23.4461L142.331 26.4508L146.072 29.069L145.134 30.4094L141.393 27.7912L138.981 31.2378L142.958 34.0209L141.999 35.3907Z" fill="#3e170a"/>
<path d="M151.435 43.8144L149.656 42.1365L152.473 30.5326L152.42 30.4832C152.265 30.6658 152.097 30.8614 151.916 31.0702C151.744 31.2871 151.556 31.513 151.351 31.7479C151.154 31.9741 150.949 32.2089 150.735 32.4525C150.53 32.6874 150.321 32.9267 150.108 33.1703L145.419 38.1392L144.099 36.8932L152.908 27.5567L154.673 29.2223L151.88 40.7747L151.933 40.824C152.047 40.685 152.191 40.5155 152.363 40.3155C152.543 40.1068 152.736 39.885 152.941 39.6501C153.146 39.4152 153.356 39.176 153.569 38.9324C153.782 38.6888 153.988 38.4624 154.185 38.2532L158.923 33.2319L160.243 34.478L151.435 43.8144Z" fill="#3e170a"/>
<path d="M162.239 49.5655C161.535 50.1054 160.789 50.4516 160 50.604C159.227 50.7587 158.455 50.6785 157.685 50.3633C156.924 50.0408 156.215 49.4517 155.558 48.5959C154.617 47.3692 154.241 46.1699 154.43 44.9981C154.635 43.8284 155.303 42.8095 156.435 41.9413L162.996 36.9074L164.211 38.4906L157.721 43.4698C156.884 44.1118 156.394 44.7824 156.251 45.4815C156.117 46.1734 156.338 46.8949 156.914 47.6461C157.316 48.1691 157.741 48.5073 158.191 48.6605C158.648 48.8233 159.121 48.8386 159.608 48.7062C160.106 48.5665 160.616 48.296 161.139 47.8948L167.614 42.9265L168.829 44.5097L162.239 49.5655Z" fill="#3e170a"/>
<path d="M168.437 55.6586C168.949 55.3957 169.4 55.2648 169.792 55.2659C170.199 55.2722 170.543 55.3784 170.824 55.5844C171.111 55.801 171.344 56.0853 171.525 56.4371C171.7 56.7782 171.793 57.1283 171.802 57.4874C171.811 57.8464 171.697 58.188 171.459 58.5122C171.238 58.8416 170.871 59.1377 170.359 59.4006C169.858 59.6579 169.404 59.7835 168.997 59.7772C168.605 59.7761 168.261 59.6699 167.964 59.4588C167.677 59.2421 167.447 58.9632 167.271 58.622C167.091 58.2702 166.996 57.9148 166.986 57.5558C166.993 57.2019 167.107 56.8603 167.329 56.5309C167.567 56.2067 167.936 55.9159 168.437 55.6586Z" fill="#3e170a"/>
<path d="M168.536 73.6885L178.1 67.3606L178.08 67.2913C177.856 67.3789 177.549 67.4832 177.16 67.6043C176.774 67.737 176.357 67.8719 175.91 68.0091C175.467 68.1579 175.025 68.2935 174.587 68.4159L167.608 70.3639L167.12 68.615L179.484 65.1638L180.238 67.865L171.224 73.8901L171.239 73.942L182.084 74.4796L182.838 77.1809L170.475 80.6321L169.962 78.7967L177.045 76.8197C177.449 76.7069 177.866 76.5967 178.296 76.489C178.738 76.3781 179.153 76.281 179.54 76.1977C179.927 76.1145 180.244 76.0448 180.49 75.9887L180.47 75.9194L169.005 75.3682L168.536 73.6885Z" fill="#3e170a"/>
<path d="M171.098 89.5495L170.307 82.7457L183.058 81.2648L183.848 88.0685L182.205 88.2594L181.645 83.4378L178.002 83.8609L178.529 88.3968L176.904 88.5855L176.377 84.0497L172.198 84.535L172.758 89.3566L171.098 89.5495Z" fill="#3e170a"/>
</svg>
